<?xml version="1.0" encoding="UTF-8" standalone="no"?>
<!-- Created with Inkscape (http://www.inkscape.org/) -->

<svg
   xmlns:osb="http://www.openswatchbook.org/uri/2009/osb"
   xmlns:dc="http://purl.org/dc/elements/1.1/"
   xmlns:cc="http://creativecommons.org/ns#"
   xmlns:rdf="http://www.w3.org/1999/02/22-rdf-syntax-ns#"
   xmlns:svg="http://www.w3.org/2000/svg"
   xmlns="http://www.w3.org/2000/svg"
   xmlns:sodipodi="http://sodipodi.sourceforge.net/DTD/sodipodi-0.dtd"
   xmlns:inkscape="http://www.inkscape.org/namespaces/inkscape"
   width="650mm"
   height="297mm"
   viewBox="0 0 650 297"
   version="1.1"
   id="svg8"
   inkscape:version="0.92.5 (2060ec1f9f, 2020-04-08)"
   sodipodi:docname="wonsz.svg"
   inkscape:export-filename="/home/mrucznik/Pictures/wonsz.png"
   inkscape:export-xdpi="96"
   inkscape:export-ydpi="96">
  <defs
     id="defs2">
    <linearGradient
       id="linearGradient2299"
       osb:paint="solid">
      <stop
         style="stop-color:#000000;stop-opacity:1;"
         offset="0"
         id="stop2297" />
    </linearGradient>
    <inkscape:path-effect
       effect="spiro"
       id="path-effect4707"
       is_visible="true" />
    <inkscape:path-effect
       effect="spiro"
       id="path-effect4703"
       is_visible="true" />
    <inkscape:path-effect
       effect="spiro"
       id="path-effect4699"
       is_visible="true" />
    <inkscape:path-effect
       effect="spiro"
       id="path-effect4695"
       is_visible="true" />
    <inkscape:path-effect
       effect="spiro"
       id="path-effect4655"
       is_visible="true" />
    <inkscape:path-effect
       effect="spiro"
       id="path-effect30"
       is_visible="true" />
    <inkscape:path-effect
       effect="spiro"
       id="path-effect4655-3"
       is_visible="true" />
  </defs>
  <sodipodi:namedview
     id="base"
     pagecolor="#ffffff"
     bordercolor="#666666"
     borderopacity="1.0"
     inkscape:pageopacity="0.0"
     inkscape:pageshadow="2"
     inkscape:zoom="0.49497475"
     inkscape:cx="1182.3362"
     inkscape:cy="651.5258"
     inkscape:document-units="mm"
     inkscape:current-layer="layer1"
     showgrid="false"
     inkscape:window-width="1848"
     inkscape:window-height="1016"
     inkscape:window-x="72"
     inkscape:window-y="27"
     inkscape:window-maximized="1" />
  <metadata
     id="metadata5">
    <rdf:RDF>
      <cc:Work
         rdf:about="">
        <dc:format>image/svg+xml</dc:format>
        <dc:type
           rdf:resource="http://purl.org/dc/dcmitype/StillImage" />
        <dc:title />
      </cc:Work>
    </rdf:RDF>
  </metadata>
  <g
     inkscape:label="Layer 1"
     inkscape:groupmode="layer"
     id="layer1">
    <path
       style="fill:#5ae0ff;fill-opacity:1;stroke:#000000;stroke-width:5;stroke-linecap:butt;stroke-linejoin:miter;stroke-miterlimit:4;stroke-dasharray:none;stroke-opacity:1"
       d="m 149.23396,74.309452 c -1.26109,-0.01106 -2.52235,0.04582 -3.77548,0.170013 -6.68335,0.662403 -13.1239,3.183239 -18.71823,6.899323 -11.18869,7.432167 -18.74892,19.310272 -23.84145,31.739662 -6.49684,15.85693 -9.444094,32.89769 -13.897857,49.44504 -5.799884,21.54869 -14.244547,42.45754 -25.925549,61.4717 -5.395233,8.78229 -11.486646,17.13156 -18.176668,24.97108 a 61.739258,56.928408 0 0 1 30.619318,20.34037 c 6.233652,-9.51907 12.509536,-19.01041 18.828308,-28.4732 14.222868,-21.29967 28.724198,-42.53714 45.970328,-61.47221 7.32457,-8.04188 15.13006,-15.65194 22.10046,-24.00267 6.97039,-8.35074 13.14639,-17.55064 16.65324,-27.8474 2.98401,-8.76157 3.94857,-18.35225 1.72238,-27.33631 -2.22619,-8.984069 -7.83329,-17.280791 -15.8874,-21.841565 -4.74838,-2.688846 -10.20669,-4.015896 -15.6714,-4.063833 z"
       id="path28"
       inkscape:connector-curvature="0" />
    <path
       style="fill:#ffffff;fill-opacity:1;stroke:#000000;stroke-width:4;stroke-linecap:butt;stroke-linejoin:miter;stroke-miterlimit:4;stroke-dasharray:none;stroke-opacity:1"
       d="m 77.240894,55.922886 c -0.685319,-3.991073 -0.350074,-8.153131 0.965211,-11.983059 1.315284,-3.829929 3.607882,-7.319788 6.60066,-10.047718 2.992778,-2.72793 6.679533,-4.688278 10.614603,-5.644071 3.935071,-0.955794 8.110302,-0.905054 12.020982,0.146087 5.80167,1.559415 10.97006,5.36035 14.18749,10.433746 3.21742,5.073396 4.45202,11.369042 3.38905,17.281844 -1.06298,5.912803 -4.41302,11.384243 -9.19601,15.019361 -4.783,3.635119 -10.95162,5.397939 -16.933156,4.839024 -5.262997,-0.491774 -10.344049,-2.761214 -14.222651,-6.352512 -3.878602,-3.591299 -6.53161,-8.483026 -7.426179,-13.692702 z"
       id="path4653"
       inkscape:connector-curvature="0"
       inkscape:path-effect="#path-effect4655"
       inkscape:original-d="M 77.240894,55.922886 C 70.024352,49.241413 97.37546,37.570113 107.44235,28.394125 117.50924,19.218135 101.74086,60.109843 98.889724,75.9681 96.038584,91.826357 84.457433,62.604358 77.240894,55.922886 Z"
       transform="translate(11.225319,48.108516)" />
    <path
       transform="translate(66.701566,71.456643)"
       style="fill:#ffffff;fill-opacity:1;stroke:#000000;stroke-width:4;stroke-linecap:butt;stroke-linejoin:miter;stroke-miterlimit:4;stroke-dasharray:none;stroke-opacity:1"
       d="m 77.240894,55.922886 c -0.685319,-3.991073 -0.350074,-8.153131 0.965211,-11.983059 1.315284,-3.829929 3.607882,-7.319788 6.60066,-10.047718 2.992778,-2.72793 6.679533,-4.688278 10.614603,-5.644071 3.935071,-0.955794 8.110302,-0.905054 12.020982,0.146087 5.80167,1.559415 10.97006,5.36035 14.18749,10.433746 3.21742,5.073396 4.45202,11.369042 3.38905,17.281844 -1.06298,5.912803 -4.41302,11.384243 -9.19601,15.019361 -4.783,3.635119 -10.95162,5.397939 -16.933156,4.839024 -5.262997,-0.491774 -10.344049,-2.761214 -14.222651,-6.352512 -3.878602,-3.591299 -6.53161,-8.483026 -7.426179,-13.692702 z"
       id="path4653-6"
       inkscape:connector-curvature="0"
       inkscape:path-effect="#path-effect4655-3"
       inkscape:original-d="M 77.240894,55.922886 C 70.024352,49.241413 97.37546,37.570113 107.44235,28.394125 117.50924,19.218135 101.74086,60.109843 98.889724,75.9681 96.038584,91.826357 84.457433,62.604358 77.240894,55.922886 Z" />
    <path
       sodipodi:type="spiral"
       style="fill:none;fill-rule:evenodd;stroke:#000000;stroke-width:1;stroke-miterlimit:4;stroke-dasharray:none"
       id="path4687"
       sodipodi:cx="113.05501"
       sodipodi:cy="100.28963"
       sodipodi:expansion="1"
       sodipodi:revolution="3"
       sodipodi:radius="16.283712"
       sodipodi:argument="-20.015461"
       sodipodi:t0="0"
       d="m 113.05501,100.28963 c 0.32161,-0.750429 1.17023,0.0633 1.24726,0.53454 0.20873,1.27705 -1.21817,2.06652 -2.31634,1.95997 -1.96437,-0.19059 -3.02932,-2.29997 -2.6727,-4.098128 0.52336,-2.638875 3.39352,-4.012522 5.87993,-3.385417 3.314,0.835832 5.00393,4.490844 4.09814,7.661725 -1.13985,3.99023 -5.58988,5.99948 -9.44352,4.81086 -4.66728,-1.43959 -6.99742,-6.68986 -5.52358,-11.225322 1.73687,-5.344879 7.79043,-7.996842 13.00712,-6.236295 6.02287,2.032621 8.99726,8.89138 6.94901,14.788907 -2.32735,6.70115 -9.99261,9.99839 -16.57071,7.66174 -7.37963,-2.62137 -11.000012,-11.09405 -8.374451,-18.352505 2.914871,-8.058267 12.195631,-12.002025 20.134301,-9.087174" />
    <path
       sodipodi:type="spiral"
       style="fill:none;fill-rule:evenodd;stroke:#000000;stroke-width:1;stroke-miterlimit:4;stroke-dasharray:none"
       id="path4691"
       sodipodi:cx="167.04344"
       sodipodi:cy="124.07662"
       sodipodi:expansion="1"
       sodipodi:revolution="3"
       sodipodi:radius="18.174328"
       sodipodi:argument="-17.278759"
       sodipodi:t0="0"
       d="m 167.04344,124.07662 c 0,0.91123 -1.22832,0.44957 -1.51453,0 -0.77559,-1.21831 0.34111,-2.65554 1.51453,-3.02905 2.09898,-0.66813 4.11886,1.0276 4.54358,3.02905 0.6233,2.93722 -1.71716,5.60827 -4.54358,6.05811 -3.76718,0.59956 -7.10776,-2.40699 -7.57263,-6.05811 -0.585,-4.59457 3.09675,-8.61226 7.57264,-9.08716 5.4209,-0.57517 10.11961,3.78643 10.60168,9.08717 0.56811,6.24673 -4.47606,11.62875 -10.6017,12.11621 -7.07229,0.56279 -13.13909,-5.16565 -13.63073,-12.11623 -0.55865,-7.89768 5.85521,-14.65026 13.63075,-15.14526 8.72298,-0.55532 16.16205,6.54476 16.65979,15.14528 0.55259,9.54821 -7.2343,17.67429 -16.65981,18.17432" />
    <path
       style="fill:none;stroke:#000000;stroke-width:4;stroke-linecap:butt;stroke-linejoin:miter;stroke-miterlimit:4;stroke-dasharray:none;stroke-opacity:1"
       d="M 141.65285,36.679481 162.49987,17.703343"
       id="path4693"
       inkscape:connector-curvature="0"
       inkscape:path-effect="#path-effect4695"
       inkscape:original-d="m 141.65285,36.679481 c 6.94927,-6.325645 13.89828,-12.651023 20.84702,-18.976138"
       transform="translate(11.225319,48.108516)" />
    <path
       style="fill:none;stroke:#000000;stroke-width:4;stroke-linecap:butt;stroke-linejoin:miter;stroke-miterlimit:4;stroke-dasharray:none;stroke-opacity:1"
       d="M 162.49987,17.703343 160.47103,1.8209533"
       id="path4697"
       inkscape:connector-curvature="0"
       inkscape:path-effect="#path-effect4699"
       inkscape:original-d="M 162.49987,17.703343 C 161.9656,13.070407 161.00584,6.4533603 160.47103,1.8209533"
       sodipodi:nodetypes="cc"
       transform="translate(11.225319,48.108516)" />
    <path
       style="fill:none;stroke:#000000;stroke-width:4;stroke-linecap:butt;stroke-linejoin:miter;stroke-miterlimit:4;stroke-dasharray:none;stroke-opacity:1"
       d="m 162.49987,17.703343 16.91765,-3.883514"
       id="path4705"
       inkscape:connector-curvature="0"
       inkscape:path-effect="#path-effect4707"
       inkscape:original-d="m 162.49987,17.703343 c 5.43474,-1.247522 11.48343,-2.636521 16.91765,-3.883514"
       sodipodi:nodetypes="cc"
       transform="translate(11.225319,48.108516)" />
    <text
       xml:space="preserve"
       style="font-style:normal;font-variant:normal;font-weight:normal;font-stretch:normal;font-size:123.47222137px;line-height:1.25;font-family:'Gopher Text';-inkscape-font-specification:'Gopher Text';letter-spacing:0px;word-spacing:0px;fill:#00cdff;fill-opacity:1;stroke:#00000e;stroke-width:2.5;stroke-miterlimit:4;stroke-dasharray:none;stroke-opacity:1"
       x="202.5903"
       y="238.73526"
       id="text32"><tspan
         sodipodi:role="line"
         id="tspan30"
         x="202.5903"
         y="238.73526"
         style="font-style:normal;font-variant:normal;font-weight:bold;font-stretch:normal;font-size:123.47222137px;font-family:'Gopher Text';-inkscape-font-specification:'Gopher Text';fill:#00cdff;fill-opacity:1;stroke:#00000e;stroke-width:2.5;stroke-miterlimit:4;stroke-dasharray:none;stroke-opacity:1">Wonsz</tspan><tspan
         sodipodi:role="line"
         x="202.5903"
         y="393.07553"
         style="font-style:normal;font-variant:normal;font-weight:normal;font-stretch:normal;font-size:123.47222137px;font-family:'Gopher Text';-inkscape-font-specification:'Gopher Text';fill:#00cdff;fill-opacity:1;stroke:#00000e;stroke-width:2.5;stroke-miterlimit:4;stroke-dasharray:none;stroke-opacity:1"
         id="tspan2311" /></text>
  </g>
</svg>
